<mxfile host="Electron" modified="2023-07-15T12:11:25.241Z" agent="Mozilla/5.0 (Windows NT 10.0; Win64; x64) AppleWebKit/537.36 (KHTML, like Gecko) draw.io/21.6.1 Chrome/112.0.5615.204 Electron/24.6.1 Safari/537.36" etag="LBA8oasPo5h49nCElsFn" version="21.6.1" type="device">
  <diagram id="R2lEEEUBdFMjLlhIrx00" name="Page-1">
    <mxGraphModel dx="670" dy="350" grid="1" gridSize="10" guides="1" tooltips="1" connect="1" arrows="1" fold="1" page="1" pageScale="1" pageWidth="850" pageHeight="1100" math="0" shadow="0" extFonts="Permanent Marker^https://fonts.googleapis.com/css?family=Permanent+Marker">
      <root>
        <mxCell id="0" />
        <mxCell id="1" parent="0" />
        <mxCell id="faU7WTCp6L3Y7hXqfWqU-1" value="Task" style="swimlane;childLayout=stackLayout;horizontal=1;startSize=30;horizontalStack=0;rounded=1;fontSize=14;fontStyle=0;strokeWidth=2;resizeParent=0;resizeLast=1;shadow=0;dashed=0;align=center;fillColor=#d5e8d4;gradientColor=#97d077;strokeColor=#82b366;" parent="1" vertex="1">
          <mxGeometry x="410" y="170" width="160" height="220" as="geometry" />
        </mxCell>
        <mxCell id="faU7WTCp6L3Y7hXqfWqU-2" value="+ id&#xa;+ title&#xa;+ description&#xa;+ completed&#xa;+ DateCreated&#xa;+ DateDue&#xa;+ DateCompleted&#xa;+ periorityId&#xa;+ ListId&#xa;+ UserCreatedId&#xa;+ UserCompletedId" style="align=left;strokeColor=none;fillColor=none;spacingLeft=4;fontSize=12;verticalAlign=top;resizable=0;rotatable=0;part=1;" parent="faU7WTCp6L3Y7hXqfWqU-1" vertex="1">
          <mxGeometry y="30" width="160" height="190" as="geometry" />
        </mxCell>
        <mxCell id="faU7WTCp6L3Y7hXqfWqU-5" value="Steps" style="swimlane;childLayout=stackLayout;horizontal=1;startSize=30;horizontalStack=0;rounded=1;fontSize=14;fontStyle=0;strokeWidth=2;resizeParent=0;resizeLast=1;shadow=0;dashed=0;align=center;fillColor=#d5e8d4;strokeColor=#82b366;gradientColor=#97d077;" parent="1" vertex="1">
          <mxGeometry x="220" y="300" width="160" height="140" as="geometry" />
        </mxCell>
        <mxCell id="faU7WTCp6L3Y7hXqfWqU-6" value="+ id&#xa;+ taskId&#xa;+ title&#xa;+ completed&#xa;+ UserCreatedId&#xa;+ UserCompletedId" style="align=left;strokeColor=none;fillColor=none;spacingLeft=4;fontSize=12;verticalAlign=top;resizable=0;rotatable=0;part=1;" parent="faU7WTCp6L3Y7hXqfWqU-5" vertex="1">
          <mxGeometry y="30" width="160" height="110" as="geometry" />
        </mxCell>
        <mxCell id="faU7WTCp6L3Y7hXqfWqU-7" value="Periority" style="swimlane;childLayout=stackLayout;horizontal=1;startSize=30;horizontalStack=0;rounded=1;fontSize=14;fontStyle=0;strokeWidth=2;resizeParent=0;resizeLast=1;shadow=0;dashed=0;align=center;fillColor=#d5e8d4;gradientColor=#97d077;strokeColor=#82b366;" parent="1" vertex="1">
          <mxGeometry x="650" y="290" width="160" height="100" as="geometry" />
        </mxCell>
        <mxCell id="faU7WTCp6L3Y7hXqfWqU-8" value="+ id&#xa;+ title&#xa;+ order [1,2,3,4,5]&#xa;+ color (#a0a0a0)" style="align=left;strokeColor=none;fillColor=none;spacingLeft=4;fontSize=12;verticalAlign=top;resizable=0;rotatable=0;part=1;" parent="faU7WTCp6L3Y7hXqfWqU-7" vertex="1">
          <mxGeometry y="30" width="160" height="70" as="geometry" />
        </mxCell>
        <mxCell id="faU7WTCp6L3Y7hXqfWqU-11" value="" style="edgeStyle=orthogonalEdgeStyle;fontSize=12;html=1;endArrow=ERzeroToMany;endFill=1;rounded=0;exitX=0;exitY=0.25;exitDx=0;exitDy=0;entryX=0.75;entryY=0;entryDx=0;entryDy=0;elbow=vertical;" parent="1" source="faU7WTCp6L3Y7hXqfWqU-2" target="faU7WTCp6L3Y7hXqfWqU-5" edge="1">
          <mxGeometry width="100" height="100" relative="1" as="geometry">
            <mxPoint x="370" y="250" as="sourcePoint" />
            <mxPoint x="340" y="260" as="targetPoint" />
          </mxGeometry>
        </mxCell>
        <mxCell id="nAvGO5gGXyjSA5zIZ2VD-10" value="Cascad" style="edgeLabel;html=1;align=center;verticalAlign=middle;resizable=0;points=[];" vertex="1" connectable="0" parent="faU7WTCp6L3Y7hXqfWqU-11">
          <mxGeometry x="-0.3959" y="-2" relative="1" as="geometry">
            <mxPoint as="offset" />
          </mxGeometry>
        </mxCell>
        <mxCell id="faU7WTCp6L3Y7hXqfWqU-15" value="List" style="swimlane;childLayout=stackLayout;horizontal=1;startSize=30;horizontalStack=0;rounded=1;fontSize=14;fontStyle=0;strokeWidth=2;resizeParent=0;resizeLast=1;shadow=0;dashed=0;align=center;fillColor=#dae8fc;gradientColor=#7ea6e0;strokeColor=#6c8ebf;" parent="1" vertex="1">
          <mxGeometry x="410" y="30" width="160" height="100" as="geometry" />
        </mxCell>
        <mxCell id="faU7WTCp6L3Y7hXqfWqU-16" value="+ id&#xa;+ Name (Unique)&#xa;+ OwnerId&#xa;" style="align=left;strokeColor=none;fillColor=none;spacingLeft=4;fontSize=12;verticalAlign=top;resizable=0;rotatable=0;part=1;" parent="faU7WTCp6L3Y7hXqfWqU-15" vertex="1">
          <mxGeometry y="30" width="160" height="70" as="geometry" />
        </mxCell>
        <mxCell id="faU7WTCp6L3Y7hXqfWqU-17" value="" style="edgeStyle=elbowEdgeStyle;fontSize=12;html=1;endArrow=ERzeroToMany;endFill=1;rounded=0;exitX=0.5;exitY=1;exitDx=0;exitDy=0;entryX=0.5;entryY=0;entryDx=0;entryDy=0;elbow=vertical;" parent="1" source="faU7WTCp6L3Y7hXqfWqU-15" target="faU7WTCp6L3Y7hXqfWqU-1" edge="1">
          <mxGeometry width="100" height="100" relative="1" as="geometry">
            <mxPoint x="580" y="210" as="sourcePoint" />
            <mxPoint x="660" y="210" as="targetPoint" />
          </mxGeometry>
        </mxCell>
        <mxCell id="9H2UKxU-2WRqln6PMeHQ-1" value="" style="edgeStyle=entityRelationEdgeStyle;fontSize=12;html=1;endArrow=ERzeroToMany;endFill=1;rounded=0;exitX=0;exitY=0;exitDx=0;exitDy=0;entryX=1;entryY=0.25;entryDx=0;entryDy=0;" parent="1" source="faU7WTCp6L3Y7hXqfWqU-8" target="faU7WTCp6L3Y7hXqfWqU-2" edge="1">
          <mxGeometry width="100" height="100" relative="1" as="geometry">
            <mxPoint x="580" y="210" as="sourcePoint" />
            <mxPoint x="660" y="210" as="targetPoint" />
          </mxGeometry>
        </mxCell>
        <mxCell id="nAvGO5gGXyjSA5zIZ2VD-11" value="SetNull" style="edgeLabel;html=1;align=center;verticalAlign=middle;resizable=0;points=[];" vertex="1" connectable="0" parent="9H2UKxU-2WRqln6PMeHQ-1">
          <mxGeometry x="0.0431" relative="1" as="geometry">
            <mxPoint y="1" as="offset" />
          </mxGeometry>
        </mxCell>
        <mxCell id="EoYtCL8_p0eVjPvF845X-2" value="User: IdentityUser" style="swimlane;childLayout=stackLayout;horizontal=1;startSize=30;horizontalStack=0;rounded=1;fontSize=14;fontStyle=0;strokeWidth=2;resizeParent=0;resizeLast=1;shadow=0;dashed=0;align=center;fillColor=#dae8fc;gradientColor=#7ea6e0;strokeColor=#6c8ebf;" parent="1" vertex="1">
          <mxGeometry x="120" y="170" width="160" height="100" as="geometry" />
        </mxCell>
        <mxCell id="EoYtCL8_p0eVjPvF845X-4" value="User_List" style="swimlane;childLayout=stackLayout;horizontal=1;startSize=30;horizontalStack=0;rounded=1;fontSize=14;fontStyle=0;strokeWidth=2;resizeParent=0;resizeLast=1;shadow=0;dashed=0;align=center;fillColor=#dae8fc;gradientColor=#7ea6e0;strokeColor=#6c8ebf;" parent="1" vertex="1">
          <mxGeometry x="120" y="30" width="160" height="100" as="geometry" />
        </mxCell>
        <mxCell id="EoYtCL8_p0eVjPvF845X-5" value="+ UserId&#xa;+ ListIdÂ &#xa;" style="align=left;strokeColor=none;fillColor=none;spacingLeft=4;fontSize=12;verticalAlign=top;resizable=0;rotatable=0;part=1;" parent="EoYtCL8_p0eVjPvF845X-4" vertex="1">
          <mxGeometry y="30" width="160" height="70" as="geometry" />
        </mxCell>
        <mxCell id="EoYtCL8_p0eVjPvF845X-10" value="" style="edgeStyle=orthogonalEdgeStyle;fontSize=12;html=1;endArrow=ERzeroToMany;endFill=1;rounded=0;exitX=0;exitY=0;exitDx=0;exitDy=0;entryX=0;entryY=0;entryDx=0;entryDy=0;" parent="1" target="EoYtCL8_p0eVjPvF845X-5" edge="1">
          <mxGeometry width="100" height="100" relative="1" as="geometry">
            <mxPoint x="120" y="200" as="sourcePoint" />
            <mxPoint x="80" y="109.99999999999994" as="targetPoint" />
            <Array as="points">
              <mxPoint x="90" y="200" />
              <mxPoint x="90" y="60" />
            </Array>
          </mxGeometry>
        </mxCell>
        <mxCell id="EoYtCL8_p0eVjPvF845X-11" value="" style="edgeStyle=entityRelationEdgeStyle;fontSize=12;html=1;endArrow=ERzeroToMany;endFill=1;rounded=0;exitX=0;exitY=0;exitDx=0;exitDy=0;entryX=1;entryY=0;entryDx=0;entryDy=0;" parent="1" source="faU7WTCp6L3Y7hXqfWqU-16" target="EoYtCL8_p0eVjPvF845X-5" edge="1">
          <mxGeometry width="100" height="100" relative="1" as="geometry">
            <mxPoint x="660" y="330" as="sourcePoint" />
            <mxPoint x="580" y="252.5" as="targetPoint" />
          </mxGeometry>
        </mxCell>
        <mxCell id="CwiMySEwG76Z99OssrNY-8" value="+ FirstName&lt;br&gt;+ LastName&lt;br&gt;+ Imge&amp;nbsp; &amp;nbsp; &amp;nbsp; &amp;nbsp; &amp;nbsp;" style="text;html=1;align=center;verticalAlign=middle;resizable=0;points=[];autosize=1;strokeColor=none;fillColor=none;" parent="1" vertex="1">
          <mxGeometry x="135" y="203" width="90" height="60" as="geometry" />
        </mxCell>
        <mxCell id="nAvGO5gGXyjSA5zIZ2VD-1" value="" style="edgeStyle=entityRelationEdgeStyle;fontSize=12;html=1;endArrow=ERzeroToMany;endFill=1;rounded=0;exitX=1;exitY=0.25;exitDx=0;exitDy=0;entryX=0;entryY=0.75;entryDx=0;entryDy=0;fillColor=#e51400;strokeColor=#B20000;strokeWidth=1;" edge="1" parent="1" source="EoYtCL8_p0eVjPvF845X-2" target="faU7WTCp6L3Y7hXqfWqU-16">
          <mxGeometry width="100" height="100" relative="1" as="geometry">
            <mxPoint x="450" y="140" as="sourcePoint" />
            <mxPoint x="320" y="140" as="targetPoint" />
          </mxGeometry>
        </mxCell>
        <mxCell id="nAvGO5gGXyjSA5zIZ2VD-4" value="cascad" style="edgeLabel;html=1;align=center;verticalAlign=middle;resizable=0;points=[];" vertex="1" connectable="0" parent="nAvGO5gGXyjSA5zIZ2VD-1">
          <mxGeometry x="-0.0693" relative="1" as="geometry">
            <mxPoint as="offset" />
          </mxGeometry>
        </mxCell>
        <mxCell id="nAvGO5gGXyjSA5zIZ2VD-2" value="" style="edgeStyle=entityRelationEdgeStyle;fontSize=12;html=1;endArrow=ERzeroToMany;endFill=1;rounded=0;exitX=1;exitY=0.5;exitDx=0;exitDy=0;entryX=0;entryY=0;entryDx=0;entryDy=0;fillColor=#e51400;strokeColor=#B20000;strokeWidth=1;" edge="1" parent="1" source="EoYtCL8_p0eVjPvF845X-2" target="faU7WTCp6L3Y7hXqfWqU-2">
          <mxGeometry width="100" height="100" relative="1" as="geometry">
            <mxPoint x="40" y="411" as="sourcePoint" />
            <mxPoint x="170" y="329" as="targetPoint" />
          </mxGeometry>
        </mxCell>
        <mxCell id="nAvGO5gGXyjSA5zIZ2VD-8" value="Restrict" style="edgeLabel;html=1;align=center;verticalAlign=middle;resizable=0;points=[];" vertex="1" connectable="0" parent="nAvGO5gGXyjSA5zIZ2VD-2">
          <mxGeometry x="-0.0496" y="3" relative="1" as="geometry">
            <mxPoint as="offset" />
          </mxGeometry>
        </mxCell>
        <mxCell id="nAvGO5gGXyjSA5zIZ2VD-3" value="" style="edgeStyle=elbowEdgeStyle;fontSize=12;html=1;endArrow=ERzeroToMany;endFill=1;rounded=0;exitX=0.25;exitY=1;exitDx=0;exitDy=0;entryX=0;entryY=0;entryDx=0;entryDy=0;fillColor=#e51400;strokeColor=#B20000;strokeWidth=1;elbow=vertical;" edge="1" parent="1" source="EoYtCL8_p0eVjPvF845X-2" target="faU7WTCp6L3Y7hXqfWqU-6">
          <mxGeometry width="100" height="100" relative="1" as="geometry">
            <mxPoint x="290" y="230" as="sourcePoint" />
            <mxPoint x="420" y="210" as="targetPoint" />
            <Array as="points">
              <mxPoint x="190" y="330" />
            </Array>
          </mxGeometry>
        </mxCell>
        <mxCell id="nAvGO5gGXyjSA5zIZ2VD-9" value="Restrict" style="edgeLabel;html=1;align=center;verticalAlign=middle;resizable=0;points=[];" vertex="1" connectable="0" parent="nAvGO5gGXyjSA5zIZ2VD-3">
          <mxGeometry x="-0.4667" y="3" relative="1" as="geometry">
            <mxPoint as="offset" />
          </mxGeometry>
        </mxCell>
        <mxCell id="nAvGO5gGXyjSA5zIZ2VD-5" value="Cascad" style="edgeLabel;html=1;align=center;verticalAlign=middle;resizable=0;points=[];" vertex="1" connectable="0" parent="1">
          <mxGeometry x="340.00491751336466" y="49.99956150210605" as="geometry">
            <mxPoint y="1" as="offset" />
          </mxGeometry>
        </mxCell>
        <mxCell id="nAvGO5gGXyjSA5zIZ2VD-6" value="cascad" style="edgeLabel;html=1;align=center;verticalAlign=middle;resizable=0;points=[];" vertex="1" connectable="0" parent="1">
          <mxGeometry x="70.00491751336466" y="139.99956150210605" as="geometry" />
        </mxCell>
        <mxCell id="nAvGO5gGXyjSA5zIZ2VD-12" value="Cascad" style="edgeLabel;html=1;align=center;verticalAlign=middle;resizable=0;points=[];" vertex="1" connectable="0" parent="1">
          <mxGeometry x="520" y="150" as="geometry">
            <mxPoint x="-8" y="-1" as="offset" />
          </mxGeometry>
        </mxCell>
      </root>
    </mxGraphModel>
  </diagram>
</mxfile>
